<svg width="800" height="700" viewBox="0 0 800 700" fill="none" xmlns="http://www.w3.org/2000/svg">
<g clip-path="url(#clip0_25_701)">
<path d="M400.5 1012.34C628.317 1012.34 813 827.579 813 599.668C813 371.758 628.317 187 400.5 187C172.683 187 -12 371.758 -12 599.668C-12 827.579 172.683 1012.34 400.5 1012.34Z" fill="white" fill-opacity="0.75"/>
<g filter="url(#filter0_f_25_701)">
<path d="M400.5 993.651C618.191 993.651 794.665 817.105 794.665 599.326C794.665 381.546 618.191 205 400.5 205C182.809 205 6.33545 381.546 6.33545 599.326C6.33545 817.105 182.809 993.651 400.5 993.651Z" fill="white" fill-opacity="0.75"/>
<path d="M400.5 993.651C618.191 993.651 794.665 817.105 794.665 599.326C794.665 381.546 618.191 205 400.5 205C182.809 205 6.33545 381.546 6.33545 599.326C6.33545 817.105 182.809 993.651 400.5 993.651Z" fill="url(#paint0_linear_25_701)"/>
</g>
<path d="M65.1577 238.129L98.8729 278.956L87.7447 290.965L51.1328 253.276L65.1577 238.129Z" fill="#090A0D"/>
<path d="M128.179 230.494C130.035 232.747 131.849 234.996 133.613 237.236C135.378 239.481 137.134 241.759 138.874 244.074L121.411 257.976C119.101 253.954 116.716 250.006 114.253 246.124C111.791 242.247 109.084 238.509 106.125 234.921C105.91 234.661 105.555 234.252 105.059 233.689C104.563 233.127 103.985 232.507 103.324 231.829C102.662 231.151 101.964 230.473 101.22 229.795C100.476 229.117 99.7492 228.538 99.0343 228.055C98.3194 227.575 97.6583 227.24 97.0549 227.05C96.4475 226.864 95.9558 226.926 95.5797 227.24C94.902 227.798 94.4929 228.472 94.3525 229.258C94.212 230.043 94.2491 230.878 94.4558 231.759C94.6624 232.643 95.0012 233.545 95.4599 234.471C95.9227 235.397 96.4268 236.285 96.9764 237.137C97.526 237.989 98.0715 238.77 98.6087 239.481C99.1459 240.192 99.5963 240.771 99.9558 241.209C102.762 244.818 105.572 248.39 108.377 251.916C111.183 255.446 114.001 259.022 116.824 262.652L102.121 275.885C96.7202 268.518 91.3359 261.205 85.9722 253.942C80.6085 246.682 75.1333 239.44 69.5547 232.222L83.0713 219.865L86.8937 224.748C86.8937 223.611 86.9681 222.474 87.1251 221.341C87.278 220.208 87.5507 219.125 87.935 218.088C88.3193 217.05 88.8235 216.066 89.4433 215.136C90.0632 214.206 90.8359 213.363 91.7491 212.606C93.4433 211.209 95.1582 210.262 96.8938 209.77C98.6293 209.278 100.348 209.129 102.055 209.332C103.762 209.535 105.46 210.031 107.154 210.829C108.848 211.626 110.493 212.602 112.088 213.768C113.683 214.929 115.241 216.232 116.762 217.674C118.282 219.113 119.72 220.585 121.072 222.081C122.423 223.578 123.7 225.058 124.898 226.509C126.097 227.964 127.192 229.291 128.175 230.485L128.179 230.494Z" fill="#090A0D"/>
<path d="M147.043 176.021L155.774 189.944L146.398 196.699L165.051 227.476L151.882 237.203L130.836 208.009L121.547 214.892L111.857 199.373L147.047 176.025L147.043 176.021Z" fill="#090A0D"/>
<path d="M168.46 164.367L191.965 211.705L178.134 220.465L151.031 175.421L168.46 164.367Z" fill="#090A0D"/>
<path d="M248.403 158.964C249.862 162.358 251.209 165.785 252.449 169.249C253.684 172.713 254.891 176.202 256.065 179.716L238.139 188.443C236.907 184.078 235.622 179.733 234.279 175.4C232.936 171.072 231.374 166.831 229.585 162.676C229.473 162.416 229.263 161.965 228.961 161.32C228.655 160.679 228.296 159.956 227.878 159.15C227.461 158.344 227.011 157.521 226.519 156.678C226.031 155.834 225.535 155.074 225.035 154.404C224.535 153.734 224.052 153.218 223.589 152.854C223.122 152.49 222.713 152.387 222.358 152.54C221.527 152.899 221.011 153.49 220.808 154.326C220.606 155.161 220.577 156.062 220.73 157.037C220.882 158.013 221.13 158.968 221.478 159.902C221.821 160.837 222.118 161.589 222.362 162.159C222.792 163.156 223.242 164.144 223.721 165.119C224.197 166.095 224.659 167.104 225.11 168.15C226.692 171.829 228.18 175.533 229.573 179.266C230.965 182.999 232.325 186.761 233.647 190.547L217.056 198.451C215.825 194.086 214.531 189.758 213.176 185.458C211.82 181.163 210.25 176.938 208.461 172.784C208.349 172.523 208.13 172.052 207.812 171.374C207.494 170.696 207.118 169.944 206.692 169.113C206.267 168.282 205.791 167.43 205.275 166.558C204.758 165.682 204.246 164.9 203.734 164.206C203.221 163.511 202.729 162.97 202.254 162.585C201.779 162.201 201.349 162.089 200.973 162.25C200.378 162.507 199.981 162.953 199.779 163.59C199.572 164.226 199.506 164.966 199.572 165.81C199.638 166.653 199.8 167.546 200.052 168.493C200.304 169.439 200.585 170.353 200.891 171.229C201.2 172.11 201.502 172.916 201.804 173.644C202.101 174.375 202.316 174.921 202.448 175.285L212.845 201.61L194.911 209.332C193.564 205.157 192.221 200.969 190.878 196.765C189.535 192.561 188.147 188.385 186.713 184.235C185.279 180.084 183.787 175.95 182.246 171.833C180.7 167.715 179.06 163.643 177.324 159.605L193.957 151.601L195.663 155.76C195.899 154.871 196.205 153.945 196.576 152.982C196.948 152.019 197.395 151.109 197.911 150.254C198.428 149.398 199.035 148.625 199.738 147.93C200.436 147.236 201.238 146.694 202.139 146.306C203.3 145.805 204.382 145.446 205.386 145.223C206.386 145.003 207.353 144.946 208.287 145.049C209.217 145.152 210.13 145.458 211.019 145.963C211.911 146.467 212.812 147.194 213.73 148.149C214.13 146.992 214.564 145.892 215.031 144.846C215.494 143.8 216.048 142.841 216.68 141.965C217.316 141.089 218.068 140.291 218.944 139.576C219.82 138.86 220.862 138.244 222.068 137.724C224.37 136.736 226.519 136.335 228.515 136.533C230.511 136.727 232.366 137.331 234.077 138.335C235.788 139.344 237.358 140.663 238.779 142.304C240.201 143.941 241.507 145.715 242.693 147.624C243.879 149.534 244.949 151.477 245.899 153.462C246.85 155.446 247.689 157.277 248.412 158.96L248.403 158.964Z" fill="#090A0D"/>
<path d="M308.578 166.537L290.701 174.011L286.143 166.178L277.627 168.513L278.073 177.472L258.507 180.828L259.73 126.963L280.218 120.216L308.578 166.529V166.537ZM281.664 155.111L275.259 142.883L276.061 156.649L281.664 155.111Z" fill="#090A0D"/>
<path d="M335.698 112.014L337.074 128.368C336.301 128.29 335.549 128.273 334.826 128.319C334.098 128.364 333.367 128.451 332.631 128.575C330.821 128.885 329.14 129.406 327.573 130.146C326.011 130.886 324.677 131.833 323.578 132.99C322.478 134.148 321.677 135.512 321.168 137.079C320.664 138.645 320.578 140.411 320.912 142.37C321.156 143.796 321.578 145.003 322.177 145.987C322.776 146.971 323.524 147.748 324.421 148.315C325.317 148.881 326.35 149.249 327.516 149.419C328.685 149.584 329.941 149.555 331.293 149.323C332.235 149.162 333.185 148.902 334.148 148.542C335.107 148.182 336.057 147.753 336.991 147.248C337.929 146.748 338.817 146.202 339.66 145.611C340.503 145.02 341.276 144.416 341.983 143.801L344.437 161.862C343.532 162.54 342.541 163.176 341.462 163.768C340.384 164.359 339.264 164.904 338.107 165.405C336.945 165.905 335.776 166.335 334.594 166.694C333.412 167.054 332.272 167.327 331.177 167.513C327.561 168.129 324.156 168.017 320.962 167.174C317.763 166.331 314.904 164.925 312.383 162.957C309.858 160.99 307.751 158.567 306.053 155.681C304.354 152.8 303.21 149.617 302.615 146.124C301.9 141.948 301.829 137.947 302.396 134.131C302.962 130.311 304.168 126.876 306.02 123.821C307.871 120.766 310.363 118.191 313.503 116.095C316.644 113.999 320.416 112.577 324.821 111.824C326.578 111.523 328.383 111.361 330.239 111.332C332.094 111.303 333.912 111.531 335.698 112.01V112.014Z" fill="#090A0D"/>
<path d="M391.008 108.009L374.95 138.989L377.045 160.832L357.181 162.242L356.103 140.485L339.925 112.804L359.458 108.931L366.826 125.194L372.363 108.017H391.004L391.008 108.009Z" fill="#090A0D"/>
<path d="M455.352 160.34L436.017 161.572L434.261 152.68L425.446 152.11L422.95 160.725L403.359 157.513L422.079 107L443.645 107.31L455.356 160.345L455.352 160.34ZM433.637 140.758L431.57 127.108L427.839 140.382L433.637 140.758Z" fill="#090A0D"/>
<path d="M491.373 149.175L487.046 165.909L454.434 163.271L464.41 108.823L484.302 112.01L475.848 146.686L491.377 149.175H491.373Z" fill="#090A0D"/>
<path d="M525.972 157.546L520.357 173.892L488.046 168.724L502.228 115.214L521.811 119.943L510.683 153.854L525.972 157.546Z" fill="#090A0D"/>
<path d="M576.977 140.601L550.452 163.263L544.179 184.288L525.245 178.121L532.427 157.554L527.848 125.818L547.402 129.58L548.113 147.418L559.704 133.585L576.977 140.601Z" fill="#090A0D"/>
<path d="M632.081 162.759L624.659 177.422L614.039 172.87L595.568 204.76L580.444 198.489L596.328 165.363L585.642 160.948L593.936 144.64L632.081 162.759Z" fill="#090A0D"/>
<path d="M664.813 212.416C663.589 214.425 662.176 216.219 660.577 217.798C658.978 219.382 657.242 220.721 655.379 221.821C653.511 222.92 651.544 223.768 649.469 224.367C647.395 224.963 645.288 225.273 643.139 225.293C640.99 225.314 638.841 225.037 636.68 224.462C634.519 223.888 632.416 222.97 630.366 221.721C628.382 220.51 626.647 219.105 625.159 217.501C623.672 215.897 622.424 214.16 621.42 212.288C620.415 210.415 619.668 208.447 619.188 206.385C618.709 204.322 618.502 202.23 618.572 200.105C618.643 197.984 618.977 195.868 619.589 193.755C620.196 191.643 621.097 189.605 622.296 187.641C623.465 185.723 624.845 183.983 626.432 182.424C628.019 180.866 629.746 179.534 631.61 178.435C633.478 177.335 635.445 176.475 637.515 175.863C639.581 175.252 641.684 174.913 643.825 174.855C645.961 174.797 648.093 175.041 650.213 175.578C652.333 176.116 654.387 176.992 656.374 178.203C659.569 180.155 662.184 182.432 664.213 185.033C666.242 187.633 667.627 190.423 668.366 193.404C669.106 196.384 669.193 199.493 668.623 202.73C668.052 205.967 666.788 209.2 664.821 212.42L664.813 212.416ZM649.606 204.313C650.184 203.367 650.606 202.362 650.879 201.3C651.147 200.237 651.23 199.2 651.127 198.183C651.019 197.166 650.709 196.203 650.188 195.293C649.668 194.384 648.899 193.623 647.887 193.003C646.85 192.37 645.808 191.99 644.767 191.87C643.726 191.75 642.709 191.833 641.73 192.126C640.746 192.42 639.837 192.908 638.998 193.59C638.159 194.272 637.44 195.099 636.849 196.07C636.283 196.996 635.854 198.005 635.552 199.092C635.25 200.179 635.139 201.258 635.209 202.333C635.279 203.408 635.568 204.413 636.068 205.355C636.568 206.298 637.337 207.083 638.374 207.716C639.411 208.348 640.465 208.712 641.544 208.811C642.622 208.91 643.655 208.782 644.651 208.439C645.647 208.092 646.577 207.563 647.436 206.847C648.296 206.132 649.023 205.289 649.614 204.318L649.606 204.313Z" fill="#090A0D"/>
<path d="M706.92 244.905C705.478 246.761 703.871 248.381 702.102 249.775C700.333 251.164 698.461 252.3 696.482 253.181C694.503 254.061 692.449 254.682 690.325 255.041C688.197 255.397 686.069 255.467 683.932 255.244C681.796 255.021 679.689 254.504 677.61 253.685C675.527 252.867 673.54 251.722 671.647 250.246C669.812 248.82 668.246 247.224 666.949 245.463C665.651 243.702 664.61 241.833 663.821 239.861C663.031 237.889 662.515 235.847 662.271 233.743C662.027 231.639 662.06 229.535 662.366 227.435C662.676 225.335 663.25 223.272 664.093 221.242C664.936 219.212 666.06 217.29 667.474 215.475C668.854 213.702 670.42 212.131 672.172 210.758C673.924 209.386 675.788 208.261 677.767 207.381C679.746 206.5 681.796 205.868 683.92 205.496C686.044 205.119 688.172 205.024 690.304 205.21C692.432 205.396 694.523 205.876 696.569 206.649C698.618 207.426 700.556 208.526 702.391 209.956C705.346 212.255 707.685 214.814 709.408 217.629C711.131 220.44 712.189 223.371 712.59 226.414C712.986 229.456 712.722 232.557 711.788 235.711C710.858 238.865 709.234 241.932 706.916 244.909L706.92 244.905ZM692.726 235.132C693.408 234.256 693.941 233.305 694.329 232.28C694.718 231.254 694.916 230.233 694.924 229.208C694.932 228.183 694.734 227.191 694.321 226.232C693.908 225.273 693.23 224.425 692.292 223.698C691.333 222.953 690.341 222.457 689.321 222.218C688.296 221.978 687.279 221.949 686.271 222.127C685.263 222.308 684.304 222.689 683.391 223.276C682.478 223.859 681.676 224.599 680.978 225.496C680.312 226.352 679.767 227.306 679.346 228.352C678.924 229.398 678.689 230.461 678.639 231.535C678.589 232.61 678.759 233.644 679.147 234.636C679.54 235.628 680.213 236.496 681.172 237.24C682.131 237.984 683.139 238.468 684.197 238.687C685.255 238.906 686.3 238.898 687.329 238.671C688.358 238.439 689.342 238.018 690.275 237.406C691.209 236.794 692.027 236.037 692.726 235.14V235.132Z" fill="#090A0D"/>
<path d="M728.309 277.956L715.321 289.353L689.842 268.82L728.706 229.415L743.359 243.247L716.867 267.158L728.309 277.956Z" fill="#090A0D"/>
</g>
<defs>
<filter id="filter0_f_25_701" x="-43.6646" y="155" width="888.329" height="888.651" filterUnits="userSpaceOnUse" color-interpolation-filters="sRGB">
<feFlood flood-opacity="0" result="BackgroundImageFix"/>
<feBlend mode="normal" in="SourceGraphic" in2="BackgroundImageFix" result="shape"/>
<feGaussianBlur stdDeviation="25" result="effect1_foregroundBlur_25_701"/>
</filter>
<linearGradient id="paint0_linear_25_701" x1="400.5" y1="205" x2="400.5" y2="993.651" gradientUnits="userSpaceOnUse">
<stop stop-color="#F5CEE0" stop-opacity="0.75"/>
<stop offset="1" stop-color="#F5CEE0" stop-opacity="0"/>
</linearGradient>
<clipPath id="clip0_25_701">
<rect width="800" height="700" rx="8" fill="white"/>
</clipPath>
</defs>
</svg>
