<svg width="80" height="81" fill="none" xmlns="http://www.w3.org/2000/svg"><path d="M56.667 70.5v-6.667A13.333 13.333 0 0 0 43.333 50.5H16.667A13.334 13.334 0 0 0 3.333 63.833V70.5M30 37.167c7.364 0 13.333-5.97 13.333-13.334C43.333 16.47 37.363 10.5 30 10.5c-7.364 0-13.333 5.97-13.333 13.333 0 7.364 5.97 13.334 13.333 13.334ZM76.667 70.5v-6.667a13.333 13.333 0 0 0-10-12.9M53.333 10.933a13.334 13.334 0 0 1 0 25.834" stroke="#21272A" stroke-width="3" stroke-linecap="round" stroke-linejoin="round"/></svg>